<svg xmlns="http://www.w3.org/2000/svg" xmlns:xlink="http://www.w3.org/1999/xlink" width="500" zoomAndPan="magnify" viewBox="0 0 375 374.999991" height="500" preserveAspectRatio="xMidYMid meet" version="1.0"><defs><clipPath id="id1"><path d="M 77 92.832031 L 298 92.832031 L 298 281.832031 L 77 281.832031 Z M 77 92.832031 " clip-rule="nonzero"/></clipPath></defs><rect x="-37.5" width="450" fill="#ffffff" y="-37.499999" height="449.999989" fill-opacity="1"/><rect x="-37.5" width="450" fill="#8c52ff" y="-37.499999" height="449.999989" fill-opacity="1"/><rect x="-37.5" width="450" fill="#ffffff" y="-37.499999" height="449.999989" fill-opacity="1"/><rect x="-37.5" width="450" fill="#8c52ff" y="-37.499999" height="449.999989" fill-opacity="1"/><g clip-path="url(#id1)"><path fill="#ffffff" d="M 271.753906 94.792969 L 270.8125 94.246094 C 270.339844 93.910156 269.84375 93.621094 269.316406 93.382812 L 267.667969 93.382812 C 267.320312 93.15625 266.953125 92.972656 266.566406 92.832031 L 266.015625 92.832031 C 262.3125 92.789062 258.613281 92.949219 254.925781 93.316406 C 251.238281 93.683594 247.582031 94.25 243.957031 95.023438 C 240.332031 95.792969 236.761719 96.761719 233.246094 97.929688 C 229.730469 99.097656 226.289062 100.457031 222.925781 102.003906 C 219.558594 103.550781 216.289062 105.28125 213.117188 107.191406 C 209.945312 109.101562 206.886719 111.183594 203.945312 113.433594 C 201.007812 115.683594 198.199219 118.089844 195.527344 120.648438 C 192.851562 123.210938 190.328125 125.910156 187.957031 128.75 C 185.585938 125.910156 183.0625 123.210938 180.390625 120.648438 C 177.714844 118.089844 174.910156 115.683594 171.96875 113.433594 C 169.027344 111.183594 165.96875 109.101562 162.796875 107.191406 C 159.625 105.28125 156.355469 103.550781 152.992188 102.003906 C 149.625 100.457031 146.183594 99.097656 142.667969 97.929688 C 139.152344 96.761719 135.582031 95.792969 131.957031 95.023438 C 128.332031 94.25 124.675781 93.683594 120.988281 93.316406 C 117.300781 92.949219 113.605469 92.789062 109.898438 92.832031 L 109.347656 92.832031 C 108.980469 92.796875 108.613281 92.796875 108.246094 92.832031 L 106.597656 92.832031 C 106.070312 93.074219 105.574219 93.359375 105.101562 93.695312 L 104.160156 94.246094 L 80.578125 114.949219 C 79.652344 115.753906 78.957031 116.722656 78.488281 117.851562 C 78.015625 118.980469 77.824219 120.15625 77.90625 121.378906 L 77.90625 245.601562 C 77.90625 246.117188 77.953125 246.625 78.054688 247.132812 C 78.15625 247.636719 78.304688 248.125 78.503906 248.601562 C 78.699219 249.078125 78.941406 249.53125 79.230469 249.957031 C 79.515625 250.386719 79.84375 250.78125 80.207031 251.144531 C 80.570312 251.511719 80.96875 251.835938 81.398438 252.121094 C 81.828125 252.40625 82.28125 252.648438 82.757812 252.847656 C 83.234375 253.042969 83.726562 253.191406 84.230469 253.292969 C 84.738281 253.394531 85.25 253.445312 85.765625 253.445312 C 149.910156 253.445312 182.691406 279.085938 183.003906 279.324219 L 183.398438 279.324219 L 184.339844 279.949219 L 185.285156 279.949219 C 186.101562 280.492188 186.992188 280.859375 187.957031 281.046875 C 188.664062 281.164062 189.371094 281.164062 190.078125 281.046875 L 190.945312 281.046875 L 191.808594 280.578125 C 191.808594 280.578125 191.808594 280.578125 192.203125 280.578125 C 192.59375 280.578125 225.296875 254.699219 289.441406 254.699219 C 289.957031 254.699219 290.46875 254.648438 290.976562 254.546875 C 291.480469 254.445312 291.972656 254.296875 292.449219 254.101562 C 292.925781 253.902344 293.378906 253.664062 293.808594 253.375 C 294.238281 253.089844 294.636719 252.765625 295 252.402344 C 295.367188 252.035156 295.691406 251.640625 295.976562 251.210938 C 296.265625 250.785156 296.507812 250.332031 296.703125 249.855469 C 296.902344 249.382812 297.050781 248.890625 297.152344 248.386719 C 297.253906 247.878906 297.304688 247.371094 297.304688 246.855469 L 297.304688 121.378906 C 297.300781 120.253906 297.066406 119.175781 296.601562 118.152344 C 296.136719 117.125 295.480469 116.242188 294.628906 115.496094 Z M 258.707031 108.515625 L 258.707031 217.367188 C 255.710938 217.613281 252.734375 218 249.777344 218.527344 C 246.820312 219.058594 243.894531 219.726562 241.003906 220.53125 C 238.109375 221.339844 235.261719 222.28125 232.457031 223.359375 C 229.65625 224.441406 226.910156 225.648438 224.222656 226.988281 C 221.535156 228.328125 218.917969 229.796875 216.371094 231.386719 C 213.824219 232.976562 211.359375 234.683594 208.976562 236.507812 C 206.59375 238.332031 204.304688 240.265625 202.105469 242.308594 C 199.90625 244.351562 197.8125 246.496094 195.820312 248.738281 L 195.820312 144.355469 C 197.597656 141.796875 199.515625 139.34375 201.570312 136.996094 C 203.625 134.652344 205.804688 132.425781 208.105469 130.320312 C 210.410156 128.21875 212.824219 126.246094 215.347656 124.410156 C 217.867188 122.574219 220.484375 120.882812 223.199219 119.339844 C 225.910156 117.792969 228.699219 116.402344 231.566406 115.167969 C 234.433594 113.933594 237.359375 112.859375 240.347656 111.949219 C 243.332031 111.039062 246.359375 110.296875 249.429688 109.722656 C 252.5 109.148438 255.589844 108.746094 258.707031 108.515625 Z M 117.210938 108.515625 C 120.320312 108.726562 123.410156 109.105469 126.476562 109.660156 C 129.542969 110.214844 132.570312 110.941406 135.558594 111.832031 C 138.542969 112.726562 141.472656 113.78125 144.339844 115.003906 C 147.207031 116.222656 149.996094 117.597656 152.710938 119.132812 C 155.421875 120.664062 158.042969 122.34375 160.566406 124.167969 C 163.089844 125.996094 165.503906 127.957031 167.808594 130.050781 C 170.113281 132.144531 172.289062 134.363281 174.34375 136.703125 C 176.398438 139.042969 178.316406 141.488281 180.097656 144.042969 L 180.097656 248.738281 C 178.105469 246.496094 176.007812 244.351562 173.808594 242.308594 C 171.613281 240.265625 169.320312 238.332031 166.9375 236.507812 C 164.554688 234.683594 162.089844 232.976562 159.542969 231.386719 C 156.996094 229.796875 154.378906 228.328125 151.691406 226.988281 C 149.003906 225.648438 146.257812 224.441406 143.457031 223.359375 C 140.652344 222.28125 137.804688 221.339844 134.914062 220.53125 C 132.019531 219.726562 129.09375 219.058594 126.136719 218.527344 C 123.179688 218 120.203125 217.613281 117.210938 217.367188 Z M 93.625 124.90625 L 101.488281 118.007812 L 101.488281 224.898438 C 101.488281 225.414062 101.539062 225.921875 101.636719 226.425781 C 101.738281 226.933594 101.886719 227.421875 102.085938 227.898438 C 102.28125 228.375 102.523438 228.824219 102.8125 229.253906 C 103.097656 229.683594 103.425781 230.078125 103.789062 230.441406 C 104.15625 230.808594 104.550781 231.132812 104.980469 231.417969 C 105.410156 231.703125 105.863281 231.945312 106.339844 232.144531 C 106.816406 232.339844 107.308594 232.488281 107.816406 232.589844 C 108.320312 232.6875 108.832031 232.738281 109.347656 232.738281 C 113.675781 232.707031 117.976562 233.035156 122.246094 233.726562 C 126.519531 234.417969 130.703125 235.460938 134.796875 236.855469 C 138.894531 238.253906 142.84375 239.980469 146.648438 242.039062 C 150.449219 244.101562 154.054688 246.464844 157.457031 249.128906 C 136.761719 242.101562 115.484375 238.363281 93.625 237.914062 Z M 282.289062 237.914062 C 260.429688 238.363281 239.152344 242.101562 218.457031 249.128906 C 221.863281 246.464844 225.464844 244.101562 229.269531 242.039062 C 233.070312 239.980469 237.019531 238.253906 241.117188 236.855469 C 245.210938 235.460938 249.394531 234.417969 253.667969 233.726562 C 257.941406 233.035156 262.238281 232.707031 266.566406 232.738281 C 267.082031 232.738281 267.59375 232.6875 268.101562 232.589844 C 268.605469 232.488281 269.097656 232.339844 269.574219 232.144531 C 270.050781 231.945312 270.503906 231.703125 270.933594 231.417969 C 271.363281 231.132812 271.761719 230.808594 272.125 230.441406 C 272.492188 230.078125 272.816406 229.683594 273.101562 229.253906 C 273.390625 228.824219 273.632812 228.375 273.828125 227.898438 C 274.027344 227.421875 274.175781 226.933594 274.277344 226.425781 C 274.378906 225.921875 274.429688 225.414062 274.429688 224.898438 L 274.429688 118.007812 L 282.289062 124.90625 Z M 282.289062 237.914062 " fill-opacity="1" fill-rule="nonzero"/></g></svg>