<svg xmlns="http://www.w3.org/2000/svg" xmlns:xlink="http://www.w3.org/1999/xlink" width="500" zoomAndPan="magnify" viewBox="0 0 375 374.999991" height="500" preserveAspectRatio="xMidYMid meet" version="1.0"><defs><clipPath id="id1"><path d="M 78.914062 102 L 268 102 L 268 272 L 78.914062 272 Z M 78.914062 102 " clip-rule="nonzero"/></clipPath></defs><g clip-path="url(#id1)"><path fill="#ffffff" d="M 267.546875 171.835938 L 267.546875 151.40625 C 267.546875 146.664062 265.667969 142.117188 262.320312 138.769531 C 258.96875 135.40625 254.414062 133.527344 249.675781 133.527344 C 249.675781 133.527344 170.367188 133.527344 170.367188 133.527344 C 169.449219 133.527344 168.601562 133.039062 168.152344 132.230469 L 156.652344 111.941406 C 153.476562 106.34375 147.542969 102.878906 141.113281 102.878906 L 96.507812 102.878906 C 91.769531 102.878906 87.226562 104.761719 83.878906 108.121094 C 80.527344 111.472656 78.640625 116.019531 78.640625 120.757812 C 78.640625 148.617188 78.640625 225.703125 78.640625 253.5625 C 78.640625 263.429688 86.644531 271.441406 96.507812 271.441406 L 249.675781 271.441406 C 253.90625 271.441406 257.335938 268.007812 257.335938 263.777344 C 257.335938 259.546875 253.90625 256.117188 249.675781 256.117188 L 96.507812 256.117188 C 95.097656 256.117188 93.957031 254.972656 93.957031 253.5625 L 93.957031 120.757812 C 93.957031 120.082031 94.230469 119.429688 94.710938 118.949219 C 95.179688 118.46875 95.835938 118.203125 96.507812 118.203125 L 141.113281 118.203125 C 142.03125 118.203125 142.878906 118.695312 143.328125 119.5 L 154.824219 139.789062 C 157.992188 145.386719 163.933594 148.851562 170.367188 148.851562 L 249.675781 148.851562 C 250.363281 148.851562 251.003906 149.117188 251.484375 149.597656 C 251.964844 150.078125 252.230469 150.730469 252.230469 151.40625 L 252.230469 171.835938 C 252.230469 176.066406 255.660156 179.5 259.890625 179.5 C 264.117188 179.5 267.546875 176.066406 267.546875 171.835938 Z M 267.546875 171.835938 " fill-opacity="1" fill-rule="evenodd"/></g><path fill="#ffffff" d="M 114.910156 164.175781 C 106.535156 164.175781 99.285156 169.996094 97.46875 178.171875 C 93.90625 194.238281 85.847656 230.503906 81.589844 249.679688 C 80.40625 254.980469 81.703125 260.519531 85.09375 264.75 C 88.484375 268.976562 93.609375 271.441406 99.03125 271.441406 L 261.910156 271.441406 C 270.285156 271.441406 277.542969 265.617188 279.351562 257.445312 C 282.925781 241.375 290.980469 205.109375 295.242188 185.933594 C 296.414062 180.632812 295.128906 175.09375 291.738281 170.867188 C 288.347656 166.636719 283.222656 164.175781 277.800781 164.175781 Z M 114.910156 179.5 L 277.800781 179.5 C 278.574219 179.5 279.300781 179.84375 279.789062 180.457031 C 280.269531 181.0625 280.453125 181.847656 280.292969 182.605469 L 264.402344 254.113281 C 264.148438 255.289062 263.105469 256.117188 261.910156 256.117188 L 99.03125 256.117188 C 98.253906 256.117188 97.519531 255.769531 97.039062 255.15625 C 96.550781 254.554688 96.367188 253.765625 96.539062 253.011719 L 112.417969 181.5 C 112.683594 180.324219 113.714844 179.5 114.910156 179.5 Z M 114.910156 179.5 " fill-opacity="1" fill-rule="evenodd"/></svg>