<svg xmlns="http://www.w3.org/2000/svg" xmlns:xlink="http://www.w3.org/1999/xlink" width="500" zoomAndPan="magnify" viewBox="0 0 375 374.999991" height="500" preserveAspectRatio="xMidYMid meet" version="1.0"><defs><clipPath id="id1"><path d="M 95 222 L 165 222 L 165 291.902344 L 95 291.902344 Z M 95 222 " clip-rule="nonzero"/></clipPath></defs><rect x="-37.5" width="450" fill="#ffffff" y="-37.499999" height="449.999989" fill-opacity="1"/><rect x="-37.5" width="450" fill="#8c52ff" y="-37.499999" height="449.999989" fill-opacity="1"/><rect x="-37.5" width="450" fill="#ffffff" y="-37.499999" height="449.999989" fill-opacity="1"/><rect x="-37.5" width="450" fill="#8c52ff" y="-37.499999" height="449.999989" fill-opacity="1"/><g clip-path="url(#id1)"><path fill="#ffffff" d="M 124.578125 229.691406 C 124.25 230.019531 123.972656 230.398438 123.757812 230.808594 L 95.625 284.878906 C 94.703125 286.652344 95.03125 288.808594 96.441406 290.230469 C 97.316406 291.101562 98.488281 291.570312 99.667969 291.570312 C 100.386719 291.570312 101.117188 291.410156 101.789062 291.050781 L 155.738281 262.851562 C 156.148438 262.644531 156.519531 262.359375 156.855469 262.03125 L 164.402344 254.472656 L 132.121094 222.136719 Z M 124.578125 229.691406 " fill-opacity="1" fill-rule="nonzero"/></g><path fill="#ffffff" d="M 283.46875 102.820312 C 274.851562 94.167969 258.144531 95.832031 247.683594 106.324219 L 235.40625 118.621094 L 225.722656 108.917969 C 224.867188 108.058594 223.710938 107.578125 222.5 107.578125 C 221.285156 107.578125 220.125 108.054688 219.277344 108.917969 L 164.394531 163.910156 C 162.609375 165.695312 162.609375 168.59375 164.394531 170.378906 C 165.285156 171.273438 166.453125 171.726562 167.621094 171.726562 C 168.789062 171.726562 169.960938 171.273438 170.84375 170.378906 L 222.484375 118.628906 L 228.949219 125.105469 L 138.558594 215.675781 L 170.835938 248.007812 L 261.234375 157.453125 C 263.015625 159.238281 265.0625 159.238281 266.851562 157.453125 C 268.640625 155.667969 266.003906 152.777344 266.003906 150.992188 L 266.003906 150.976562 L 279.117188 138.675781 C 289.960938 127.8125 292.371094 111.757812 283.46875 102.820312 Z M 283.46875 102.820312 " fill-opacity="1" fill-rule="nonzero"/></svg>