<svg xmlns="http://www.w3.org/2000/svg" xmlns:xlink="http://www.w3.org/1999/xlink" width="500" zoomAndPan="magnify" viewBox="0 0 375 374.999991" height="500" preserveAspectRatio="xMidYMid meet" version="1.0"><defs><clipPath id="id1"><path d="M 98 9.886719 L 375 9.886719 L 375 365.386719 L 98 365.386719 Z M 98 9.886719 " clip-rule="nonzero"/></clipPath></defs><path fill="#8c52ff" d="M 0.0234375 167.886719 L 236.835938 167.886719 L 236.835938 207.386719 L 0.0234375 207.386719 Z M 0.0234375 167.886719 " fill-opacity="1" fill-rule="evenodd"/><path fill="#8c52ff" d="M 181.722656 104.546875 L 250.792969 173.671875 C 258.5 181.382812 258.5 193.890625 250.792969 201.601562 L 181.722656 270.726562 L 153.8125 242.796875 L 208.929688 187.636719 L 153.8125 132.476562 Z M 181.722656 104.546875 " fill-opacity="1" fill-rule="evenodd"/><g clip-path="url(#id1)"><path fill="#8c52ff" d="M 98.695312 29.636719 C 98.695312 18.730469 107.53125 9.886719 118.429688 9.886719 L 355.242188 9.886719 C 366.140625 9.886719 374.976562 18.730469 374.976562 29.636719 L 374.976562 345.636719 C 374.976562 356.542969 366.140625 365.386719 355.242188 365.386719 L 118.429688 365.386719 C 107.53125 365.386719 98.695312 356.542969 98.695312 345.636719 L 98.695312 286.386719 L 138.164062 286.386719 L 138.164062 325.886719 L 335.507812 325.886719 L 335.507812 49.386719 L 138.164062 49.386719 L 138.164062 88.886719 L 98.695312 88.886719 Z M 98.695312 29.636719 " fill-opacity="1" fill-rule="evenodd"/></g></svg>